<?xml version="1.0" standalone="no"?><!DOCTYPE svg PUBLIC "-//W3C//DTD SVG 1.1//EN" "http://www.w3.org/Graphics/SVG/1.1/DTD/svg11.dtd"><svg t="1574737215570" class="icon" viewBox="0 0 1024 1024" version="1.1" xmlns="http://www.w3.org/2000/svg" p-id="8403" width="256" height="256" xmlns:xlink="http://www.w3.org/1999/xlink"><defs><style type="text/css"></style></defs><path d="M615.4 705.6c-89.2 0-173.2-34.8-236.4-98-63.2-63.2-98-146.8-98-236S316.2 198.4 379 135.2C442.2 72 526.2 37.6 615.4 37.6c74.4 0 147.6 25.2 206 70.8l7.2 5.6-8 4.8c-9.2 5.2-18 10.8-26.8 16.8-13.6 9.2-26 19.2-38 30-7.2 6.8-14.4 14-21.2 21.2l-3.6 4-4.4-2.8c-33.6-20.4-72-31.2-111.6-31.2-56.4 0-109.6 21.6-150 60.8l-2.8 2.8-4-1.6c-10-4-20-7.6-30.4-10.4-12.8-3.2-22.8-5.2-28.8-5.6-2.4 10-6.8 33.6-5.6 62.8 0.8 21.2 4.4 41.6 10.8 60.8l0.4 1.6-0.4 1.6c-14 70.4 8 142.8 58.8 193.6 40.4 40.4 94.4 62.8 152 62.8 57.2 0 111.2-22.4 151.6-62.8 23.6-23.6 41.2-52 51.6-83.6l0.8-2.4 2.4-1.2c12.8-6.8 24.8-14 36-22 18-12.4 34.4-26.4 49.2-42l1.2-1.2c10-10.8 19.6-22 28-34l9.6-13.6 1.6 16.8c9.2 99.2-26 196.8-96.4 267.6-62 63.2-146 98-235.2 98z m0-655.6c-86 0-166.8 33.6-227.2 94-61.2 60.8-94.4 141.6-94.4 227.6s33.6 166.8 94.4 227.2c60.8 60.8 141.6 94 227.2 94 86 0 166.8-33.6 227.6-94 64-64 97.6-151.2 94-240.8-5.6 6.8-11.2 13.6-17.2 20l-1.6 2c-15.6 16.4-33.2 31.6-52.4 44.8-11.2 7.6-22.8 14.8-35.2 21.6-11.2 32.4-29.6 61.2-54 86-42.8 42.8-100 66.4-160.8 66.4-60.8 0-117.6-23.6-160.8-66.4-53.2-53.2-76.8-129.2-62.4-203.2-6.4-19.6-10-40.8-10.8-62.4-1.6-41.2 6.8-70.8 7.2-72l1.6-4.8 4.8 0.4c0.8 0 15.2 1.2 36.4 6.8 9.6 2.4 19.2 5.6 28.4 9.2 42.4-40 97.2-61.6 155.6-61.6 40 0 79.2 10.4 113.6 30.4 6-6.4 12-12.4 18.4-18.4 12-11.2 25.2-21.6 39.2-31.2 6.4-4.4 12.8-8.4 19.6-12.4-55.2-41.2-122.8-63.2-191.2-63.2z" fill="#4A555F" p-id="8404"></path><path d="M921.4 366v9.6c-1.2 80.4-32.8 155.6-89.6 212.4-58 58-134.8 89.6-216.4 89.6s-158.8-32-216.4-89.6c-58-58-89.6-134.8-89.6-216.4s32-158.8 89.6-216.4c58-58 134.8-89.6 216.4-89.6 65.2 0 127.6 20 180 58.4l2.4 1.6c-19.6 12.8-37.2 26.8-52.4 41.6-38.8-24.8-83.6-38-130-38-64.8 0-125.6 25.2-171.6 71.2l-5.2 5.2c-25.6-8-44-9.2-44-9.2s-11.6 38.4-5.6 88c-10.8 27.6-16 57.2-16 87.6 0 64.8 25.2 125.6 71.2 171.6 46 45.6 106.8 71.2 171.6 71.2s125.6-25.2 171.6-71.2c32.4-32.4 54.8-72.8 64.8-116.8 23.6-16.4 47.6-36 69.2-60.8z" fill="#FFD552" p-id="8405"></path><path d="M158.6 938L48.6 828l229.6-229.6c14.8-14.8 34-22.8 54.8-22.8 20.8 0 40.4 8 54.8 22.8 30.4 30.4 30.4 79.6 0 110l-229.2 229.6z m-92.4-109.6l92.4 92.4L379 700c25.6-25.6 25.6-66.8 0-92.4-12.4-12.4-28.8-19.2-46-19.2-17.6 0-34 6.8-46 19.2l-220.8 220.8z" fill="#4A555F" p-id="8406"></path><path d="M87.8 828.4l209.6-209.6c9.6-9.6 22-14.8 35.2-14.8s26 5.2 35.2 14.8c9.6 9.6 14.8 22 14.8 35.2 0 13.2-5.2 26-14.8 35.2l-209.6 209.6-70.4-70.4z" fill="#F68F6F" p-id="8407"></path><path d="M94.2 986.4c-10.4 0-20-4-27.2-11.2L11.4 920c-15.2-15.2-15.2-39.6 0-54.8l46-46 110 110-46 46c-7.2 7.2-17.2 11.2-27.2 11.2z m-36.8-149.2L20.2 874c-10.4 10.4-10.4 26.8 0 37.2l55.2 55.2c4.8 4.8 11.6 7.6 18.4 7.6 6.8 0 13.6-2.8 18.4-7.6l37.2-37.2-92-92z" fill="#4A555F" p-id="8408"></path><path d="M93.8 958.8c-1.6 0-4.8-0.4-7.6-3.2L31 900.4c-4.4-4.4-4.4-11.2 0-15.2l26.4-26.4L128.2 929.2l-26.4 26.4c-2.8 2.8-6 3.2-8 3.2z" fill="#FFD552" p-id="8409"></path><path d="M151.4 945.2v-31.6l16 15.6z" fill="#4A555F" p-id="8410"></path><path d="M158.6 929.2l-0.8 0.8v-1.2z" fill="#FFD552" p-id="8411"></path><path d="M647 493.2h-8l-0.8-4.8c-0.4-1.6-28-152.8 62.4-279.2 64-89.6 170.4-145.6 316.4-166l6.8-0.8v7.2c2.4 144.8-34.8 257.6-110.4 334.8-102 103.6-239.6 108.8-266.4 108.8z m364.8-436.8c-138.8 20.8-240 74.4-300.8 159.6-78 109.2-65.2 237.6-61.2 264.4 30.8-0.4 159.2-8 255.2-105.6 72-73.2 108-180.4 106.8-318.4z" fill="#4A555F" p-id="8412"></path><path d="M663.8 464c-3.6-42-5.2-148 60.4-238.8 55.6-77.6 147.2-128 271.6-150-2 124.4-36.4 221.6-102.4 288.8-80.4 82-187.6 97.2-229.6 100z" fill="#71CDE1" p-id="8413"></path><path d="M600.2 491.6l-6.8-1.6c-88-21.2-149.6-62-183.2-120.8-47.6-82.8-22.4-171.2-21.2-174.8l1.6-4.8 4.8 0.4c4 0.4 95.2 7.2 156.4 80.8 43.2 52 60 124 49.2 214l-0.8 6.8zM399.4 202.8c-4.4 19.6-17.2 92.8 21.6 160 31.2 54 87.6 92 168.4 113.2 8.4-82.8-7.2-149.2-47.2-197.2-50-60-122.8-73.2-142.8-76z" fill="#4A555F" p-id="8414"></path><path d="M575 455.6c-66.4-20.4-113.6-54-140-100-29.6-50.8-26.8-106-22.8-134 27.6 6 80.4 22.4 118 68 33.6 40.8 48.8 96.4 44.8 166z" fill="#71CDE1" p-id="8415"></path><path d="M949.524 115.9l9.472 8-310.048 366.98-9.472-8z" fill="#4A555F" p-id="8416"></path><path d="M462.944 281.392l137.108 198.936-10.208 7.036-137.108-198.936z" fill="#4A555F" p-id="8417"></path><path d="M896.2 952.8h-6.4l0.8-12.4c4 0.4 8 0.4 11.6 0l0.8 12.4H896.2z m-19.6-1.6c-4.4-0.8-8.8-2-12.8-3.2l4-12c3.6 1.2 7.6 2 11.2 2.8l-2.4 12.4z m39.6 0l-2.4-12.4c4-0.8 7.6-1.6 11.2-2.8l4 12c-4 1.2-8.4 2.4-12.8 3.2z m-64.8-8c-4-2-8-4-11.6-6.4l6.8-10.4c3.2 2 6.8 4 10.4 5.6l-5.6 11.2z m90-0.4l-5.2-11.2c3.6-1.6 6.8-3.6 10.4-5.6l6.8 10.4c-4 2.4-8 4.4-12 6.4z m-112.4-14c-3.6-2.8-6.8-6-9.6-9.2l9.2-8.4c2.8 2.8 5.6 5.6 8.4 8l-8 9.6z m134.8 0l-8-9.6c2.8-2.4 6-5.2 8.4-8l9.2 8.4c-3.2 3.2-6.4 6.4-9.6 9.2z m-152.8-19.2c-2.8-3.6-5.2-7.2-7.2-11.2l10.8-6c2 3.2 4 6.8 6.4 10l-10 7.2z m170.8-0.4l-10-7.2c2.4-3.2 4.4-6.4 6.4-10l10.8 6c-2 4-4.4 7.6-7.2 11.2z m-183.6-22.8c-1.6-4-3.2-8.4-4-12.8l12-3.2c0.8 3.6 2.4 7.6 3.6 11.2l-11.6 4.8z m196.4-0.4l-11.6-4.8c1.6-3.6 2.8-7.2 3.6-11.2l12 3.2c-0.8 4.8-2.4 8.8-4 12.8z m-203.2-25.2c-0.4-4.4-0.8-8.8-0.8-13.2h12.4c0 4 0.4 8 0.8 11.6l-12.4 1.6z m209.6-0.4l-12.4-1.6c0.4-4 0.8-7.6 0.8-11.6v-0.8h12.4v0.4c0.4 4.8 0 9.2-0.8 13.6z m-197.2-24.4l-12.4-1.6c0.4-4.4 1.2-8.8 2.4-13.2l12 3.2c-0.8 3.6-1.6 7.6-2 11.6z m184.8-1.2c-0.4-4-1.2-7.6-2.4-11.6l12-3.2c1.2 4.4 2 8.8 2.4 13.2l-12 1.6z m-179.2-21.6l-11.6-4.4c1.6-4 3.6-8 5.6-12l10.8 6c-1.6 3.2-3.2 6.8-4.8 10.4z m173.2-0.8c-1.6-3.6-3.2-7.2-5.2-10.4l10.8-6c2 4 4 8 5.6 12l-11.2 4.4z m-162-19.6l-10-7.2c2.4-3.6 5.6-7.2 8.4-10.4l9.2 8.4c-2.8 2.8-5.2 6-7.6 9.2z m150.8-0.8c-2.4-3.2-4.8-6-7.6-8.8l9.2-8.8c3.2 3.2 6 6.8 8.4 10l-10 7.6z m-134.8-16.4l-8-9.6c3.2-2.8 6.8-5.6 10.8-8l6.8 10.4c-3.6 2.4-6.8 4.8-9.6 7.2z m118.8-0.4c-3.2-2.4-6.4-4.8-9.6-6.8l6.8-10.4c3.6 2.4 7.2 4.8 10.8 7.6l-8 9.6z m-99.2-12l-5.2-11.2c4-2 8-3.6 12.4-4.8l4 12c-4 0.8-7.6 2.4-11.2 4z m79.2-0.4c-3.6-1.6-7.2-3.2-10.8-4.4l3.6-12c4.4 1.2 8.4 2.8 12.4 4.8l-5.2 11.6z m-57.2-7.2l-2.4-12.4c4.4-0.8 8.8-1.6 13.2-1.6l0.8 12.4c-3.6 0.4-7.6 1.2-11.6 1.6z m35.2 0c-4-0.8-7.6-1.2-11.6-1.2l0.8-12.4c4.4 0.4 8.8 0.8 13.2 1.6l-2.4 12z" fill="#4A555F" p-id="8418"></path><path d="M896.2 847.2m-78.8 0a78.8 78.8 0 1 0 157.6 0 78.8 78.8 0 1 0-157.6 0Z" fill="#71CDE1" p-id="8419"></path><path d="M890.2 792.4h12.4v107.2h-12.4z" fill="#4A555F" p-id="8420"></path><path d="M842.6 839.6h107.2v12.4h-107.2z" fill="#4A555F" p-id="8421"></path><path d="M626.2 858.4h-12.4v-12.4h12.4v12.4z m0-24.8h-12.4v-12.4h12.4v12.4z m0-24.8h-12.4V796h12.4v12.8z m0-25.2h-12.4v-12.4h12.4v12.4z m0-24.8h-12.4v-12.4h12.4v12.4z m0-25.2h-12.4v-12.4h12.4v12.4z" fill="#4A555F" p-id="8422"></path><path d="M777.4 858.8h-12.4v-12.4h12.4v12.4z m-25.2 0h-12.4v-12.4h12.4v12.4z m-24.8 0h-12.4v-12.4h12.4v12.4z m-25.2 0h-12.4v-12.4h12.4v12.4z m-24.8 0h-12.4v-12.4h12.4v12.4z m-25.2 0h-12.4v-12.4h12.4v12.4z" fill="#4A555F" p-id="8423"></path></svg>